{
  "accessors": [
    {
      "bufferView": 2,
      "componentType": 5126,
      "count": 1614,
      "max": [
        156.33332824707031,
        148.02510070800781,
        148.02510070800781
      ],
      "min": [
        -156.33332824707031,
        -148.02510070800781,
        -148.02510070800781
      ],
      "type": "VEC3"
    },
    {
      "bufferView": 2,
      "byteOffset": 19368,
      "componentType": 5126,
      "count": 1614,
      "max": [
        1,
        1,
        1
      ],
      "min": [
        -1,
        -1,
        -1
      ],
      "type": "VEC3"
    },
    {
      "bufferView": 1,
      "componentType": 5126,
      "count": 1614,
      "max": [
        0.52965950965881348,
        0.99981164932250977
      ],
      "min": [
        4.1067600250244141e-05,
        0.00011545419692993164
      ],
      "type": "VEC2"
    },
    {
      "bufferView": 1,
      "byteOffset": 12912,
      "componentType": 5126,
      "count": 1614,
      "max": [
        0.52965950965881348,
        0.99981164932250977
      ],
      "min": [
        4.1067600250244141e-05,
        0.00011545419692993164
      ],
      "type": "VEC2"
    },
    {
      "bufferView": 1,
      "byteOffset": 25824,
      "componentType": 5126,
      "count": 1614,
      "max": [
        0.52965950965881348,
        0.99981164932250977
      ],
      "min": [
        4.1067600250244141e-05,
        0.00011545419692993164
      ],
      "type": "VEC2"
    },
    {
      "bufferView": 0,
      "componentType": 5125,
      "count": 9216,
      "max": [
        1613
      ],
      "min": [
        0
      ],
      "type": "SCALAR"
    },
    {
      "bufferView": 2,
      "byteOffset": 38736,
      "componentType": 5126,
      "count": 3530,
      "max": [
        154.37164306640625,
        72.535514831542969,
        154.37164306640625
      ],
      "min": [
        -154.37164306640625,
        -72.39044189453125,
        -154.37162780761719
      ],
      "type": "VEC3"
    },
    {
      "bufferView": 2,
      "byteOffset": 81096,
      "componentType": 5126,
      "count": 3530,
      "max": [
        1,
        1,
        1
      ],
      "min": [
        -1,
        -1,
        -1
      ],
      "type": "VEC3"
    },
    {
      "bufferView": 1,
      "byteOffset": 38736,
      "componentType": 5126,
      "count": 3530,
      "max": [
        0.49140897393226624,
        0.99995970726013184
      ],
      "min": [
        0.00013536214828491211,
        4.0128827095031738e-05
      ],
      "type": "VEC2"
    },
    {
      "bufferView": 1,
      "byteOffset": 66976,
      "componentType": 5126,
      "count": 3530,
      "max": [
        0.49140897393226624,
        0.99995970726013184
      ],
      "min": [
        0.00013536214828491211,
        4.0128827095031738e-05
      ],
      "type": "VEC2"
    },
    {
      "bufferView": 1,
      "byteOffset": 95216,
      "componentType": 5126,
      "count": 3530,
      "max": [
        0.49140897393226624,
        0.99995970726013184
      ],
      "min": [
        0.00013536214828491211,
        4.0128827095031738e-05
      ],
      "type": "VEC2"
    },
    {
      "bufferView": 0,
      "byteOffset": 36864,
      "componentType": 5125,
      "count": 19200,
      "max": [
        3529
      ],
      "min": [
        0
      ],
      "type": "SCALAR"
    },
    {
      "bufferView": 2,
      "byteOffset": 123456,
      "componentType": 5126,
      "count": 332,
      "max": [
        54.211166381835938,
        62.034828186035156,
        54.211166381835938
      ],
      "min": [
        -54.211166381835938,
        -62.034828186035156,
        -54.211158752441406
      ],
      "type": "VEC3"
    },
    {
      "bufferView": 2,
      "byteOffset": 127440,
      "componentType": 5126,
      "count": 332,
      "max": [
        1,
        1,
        1
      ],
      "min": [
        -1,
        -1,
        -1
      ],
      "type": "VEC3"
    },
    {
      "bufferView": 1,
      "byteOffset": 123456,
      "componentType": 5126,
      "count": 332,
      "max": [
        0.99974602460861206,
        0.96978449821472168
      ],
      "min": [
        6.6444277763366699e-05,
        0.0001080930233001709
      ],
      "type": "VEC2"
    },
    {
      "bufferView": 1,
      "byteOffset": 126112,
      "componentType": 5126,
      "count": 332,
      "max": [
        0.99974602460861206,
        0.96978449821472168
      ],
      "min": [
        6.6444277763366699e-05,
        0.0001080930233001709
      ],
      "type": "VEC2"
    },
    {
      "bufferView": 1,
      "byteOffset": 128768,
      "componentType": 5126,
      "count": 332,
      "max": [
        0.99974602460861206,
        0.96978449821472168
      ],
      "min": [
        6.6444277763366699e-05,
        0.0001080930233001709
      ],
      "type": "VEC2"
    },
    {
      "bufferView": 0,
      "byteOffset": 113664,
      "componentType": 5125,
      "count": 960,
      "max": [
        331
      ],
      "min": [
        0
      ],
      "type": "SCALAR"
    },
    {
      "bufferView": 2,
      "byteOffset": 131424,
      "componentType": 5126,
      "count": 332,
      "max": [
        54.211166381835938,
        62.034828186035156,
        54.211166381835938
      ],
      "min": [
        -54.211166381835938,
        -62.034828186035156,
        -54.211158752441406
      ],
      "type": "VEC3"
    },
    {
      "bufferView": 2,
      "byteOffset": 135408,
      "componentType": 5126,
      "count": 332,
      "max": [
        1,
        1,
        1
      ],
      "min": [
        -1,
        -1,
        -1
      ],
      "type": "VEC3"
    },
    {
      "bufferView": 1,
      "byteOffset": 131424,
      "componentType": 5126,
      "count": 332,
      "max": [
        0.99974602460861206,
        0.96978449821472168
      ],
      "min": [
        6.6444277763366699e-05,
        0.0001080930233001709
      ],
      "type": "VEC2"
    },
    {
      "bufferView": 1,
      "byteOffset": 134080,
      "componentType": 5126,
      "count": 332,
      "max": [
        0.99974602460861206,
        0.96978449821472168
      ],
      "min": [
        6.6444277763366699e-05,
        0.0001080930233001709
      ],
      "type": "VEC2"
    },
    {
      "bufferView": 1,
      "byteOffset": 136736,
      "componentType": 5126,
      "count": 332,
      "max": [
        0.99974602460861206,
        0.96978449821472168
      ],
      "min": [
        6.6444277763366699e-05,
        0.0001080930233001709
      ],
      "type": "VEC2"
    },
    {
      "bufferView": 0,
      "byteOffset": 117504,
      "componentType": 5125,
      "count": 960,
      "max": [
        331
      ],
      "min": [
        0
      ],
      "type": "SCALAR"
    },
    {
      "bufferView": 2,
      "byteOffset": 139392,
      "componentType": 5126,
      "count": 3530,
      "max": [
        154.37164306640625,
        72.535514831542969,
        154.37164306640625
      ],
      "min": [
        -154.37164306640625,
        -72.39044189453125,
        -154.37162780761719
      ],
      "type": "VEC3"
    },
    {
      "bufferView": 2,
      "byteOffset": 181752,
      "componentType": 5126,
      "count": 3530,
      "max": [
        1,
        1,
        1
      ],
      "min": [
        -1,
        -1,
        -1
      ],
      "type": "VEC3"
    },
    {
      "bufferView": 1,
      "byteOffset": 139392,
      "componentType": 5126,
      "count": 3530,
      "max": [
        0.49140897393226624,
        0.99995970726013184
      ],
      "min": [
        0.00013536214828491211,
        4.0128827095031738e-05
      ],
      "type": "VEC2"
    },
    {
      "bufferView": 1,
      "byteOffset": 167632,
      "componentType": 5126,
      "count": 3530,
      "max": [
        0.49140897393226624,
        0.99995970726013184
      ],
      "min": [
        0.00013536214828491211,
        4.0128827095031738e-05
      ],
      "type": "VEC2"
    },
    {
      "bufferView": 1,
      "byteOffset": 195872,
      "componentType": 5126,
      "count": 3530,
      "max": [
        0.49140897393226624,
        0.99995970726013184
      ],
      "min": [
        0.00013536214828491211,
        4.0128827095031738e-05
      ],
      "type": "VEC2"
    },
    {
      "bufferView": 0,
      "byteOffset": 121344,
      "componentType": 5125,
      "count": 19200,
      "max": [
        3529
      ],
      "min": [
        0
      ],
      "type": "SCALAR"
    }
  ],
  "asset": {
    "extras": {
      "author": "p.jewindu-smchs (https://sketchfab.com/p.jewindu-smchs)",
      "license": "CC-BY-4.0 (http://creativecommons.org/licenses/by/4.0/)",
      "source": "https://sketchfab.com/3d-models/pokeball-original-ebb5c76261584d839d0013857b452703",
      "title": "Pokeball Original"
    },
    "generator": "Sketchfab-9.37.0",
    "version": "2.0"
  },
  "bufferViews": [
    {
      "buffer": 0,
      "byteLength": 198144,
      "byteOffset": 0,
      "name": "floatBufferViews",
      "target": 34963
    },
    {
      "buffer": 0,
      "byteLength": 224112,
      "byteOffset": 198144,
      "byteStride": 8,
      "name": "floatBufferViews",
      "target": 34962
    },
    {
      "buffer": 0,
      "byteLength": 224112,
      "byteOffset": 422256,
      "byteStride": 12,
      "name": "floatBufferViews",
      "target": 34962
    }
  ],
  "buffers": [
    {
      "byteLength": 646368,
      "uri": "scene.bin"
    }
  ],
  "extensionsRequired": [
    "KHR_materials_pbrSpecularGlossiness"
  ],
  "extensionsUsed": [
    "KHR_materials_pbrSpecularGlossiness"
  ],
  "images": [
    {
      "uri": "textures/material_diffuse.png"
    },
    {
      "uri": "textures/material_specularGlossiness.png"
    },
    {
      "uri": "textures/material_1_diffuse.png"
    },
    {
      "uri": "textures/material_1_specularGlossiness.png"
    },
    {
      "uri": "textures/material_2_diffuse.png"
    },
    {
      "uri": "textures/material_2_specularGlossiness.png"
    },
    {
      "uri": "textures/material_3_diffuse.png"
    },
    {
      "uri": "textures/material_4_specularGlossiness.png"
    }
  ],
  "materials": [
    {
      "doubleSided": true,
      "emissiveFactor": [
        0,
        0,
        0
      ],
      "extensions": {
        "KHR_materials_pbrSpecularGlossiness": {
          "diffuseFactor": [
            1,
            1,
            1,
            1
          ],
          "diffuseTexture": {
            "index": 0,
            "texCoord": 0
          },
          "glossinessFactor": 1,
          "specularFactor": [
            1,
            1,
            1
          ],
          "specularGlossinessTexture": {
            "index": 1,
            "texCoord": 0
          }
        }
      },
      "name": "material"
    },
    {
      "doubleSided": true,
      "emissiveFactor": [
        0,
        0,
        0
      ],
      "extensions": {
        "KHR_materials_pbrSpecularGlossiness": {
          "diffuseFactor": [
            1,
            1,
            1,
            1
          ],
          "diffuseTexture": {
            "index": 2,
            "texCoord": 0
          },
          "glossinessFactor": 1,
          "specularFactor": [
            1,
            1,
            1
          ],
          "specularGlossinessTexture": {
            "index": 3,
            "texCoord": 0
          }
        }
      },
      "name": "material_1"
    },
    {
      "doubleSided": true,
      "emissiveFactor": [
        0,
        0,
        0
      ],
      "extensions": {
        "KHR_materials_pbrSpecularGlossiness": {
          "diffuseFactor": [
            1,
            1,
            1,
            1
          ],
          "diffuseTexture": {
            "index": 4,
            "texCoord": 0
          },
          "glossinessFactor": 1,
          "specularFactor": [
            1,
            1,
            1
          ],
          "specularGlossinessTexture": {
            "index": 5,
            "texCoord": 0
          }
        }
      },
      "name": "material_2"
    },
    {
      "doubleSided": true,
      "emissiveFactor": [
        0,
        0,
        0
      ],
      "extensions": {
        "KHR_materials_pbrSpecularGlossiness": {
          "diffuseFactor": [
            1,
            1,
            1,
            1
          ],
          "diffuseTexture": {
            "index": 6,
            "texCoord": 0
          },
          "glossinessFactor": 1,
          "specularFactor": [
            1,
            1,
            1
          ],
          "specularGlossinessTexture": {
            "index": 5,
            "texCoord": 0
          }
        }
      },
      "name": "material_3"
    },
    {
      "doubleSided": true,
      "emissiveFactor": [
        0,
        0,
        0
      ],
      "extensions": {
        "KHR_materials_pbrSpecularGlossiness": {
          "diffuseFactor": [
            1,
            1,
            1,
            1
          ],
          "diffuseTexture": {
            "index": 2,
            "texCoord": 0
          },
          "glossinessFactor": 1,
          "specularFactor": [
            1,
            1,
            1
          ],
          "specularGlossinessTexture": {
            "index": 7,
            "texCoord": 0
          }
        }
      },
      "name": "material_4"
    }
  ],
  "meshes": [
    {
      "primitives": [
        {
          "attributes": {
            "NORMAL": 1,
            "POSITION": 0,
            "TEXCOORD_0": 2,
            "TEXCOORD_1": 3,
            "TEXCOORD_2": 4
          },
          "indices": 5,
          "material": 0,
          "mode": 4
        }
      ]
    },
    {
      "primitives": [
        {
          "attributes": {
            "NORMAL": 7,
            "POSITION": 6,
            "TEXCOORD_0": 8,
            "TEXCOORD_1": 9,
            "TEXCOORD_2": 10
          },
          "indices": 11,
          "material": 1,
          "mode": 4
        }
      ]
    },
    {
      "primitives": [
        {
          "attributes": {
            "NORMAL": 13,
            "POSITION": 12,
            "TEXCOORD_0": 14,
            "TEXCOORD_1": 15,
            "TEXCOORD_2": 16
          },
          "indices": 17,
          "material": 2,
          "mode": 4
        }
      ]
    },
    {
      "primitives": [
        {
          "attributes": {
            "NORMAL": 19,
            "POSITION": 18,
            "TEXCOORD_0": 20,
            "TEXCOORD_1": 21,
            "TEXCOORD_2": 22
          },
          "indices": 23,
          "material": 3,
          "mode": 4
        }
      ]
    },
    {
      "primitives": [
        {
          "attributes": {
            "NORMAL": 25,
            "POSITION": 24,
            "TEXCOORD_0": 26,
            "TEXCOORD_1": 27,
            "TEXCOORD_2": 28
          },
          "indices": 29,
          "material": 4,
          "mode": 4
        }
      ]
    }
  ],
  "nodes": [
    {
      "children": [
        1
      ],
      "name": "RootNode (gltf orientation matrix)",
      "rotation": [
        -0.70710678118654746,
        -0,
        -0,
        0.70710678118654757
      ]
    },
    {
      "children": [
        2
      ],
      "name": "RootNode (model correction matrix)"
    },
    {
      "children": [
        3
      ],
      "name": "root"
    },
    {
      "children": [
        4
      ],
      "matrix": [
        1,
        0,
        0,
        0,
        0,
        2.2204460492503131e-16,
        1,
        0,
        0,
        -1,
        2.2204460492503131e-16,
        0,
        0,
        0,
        0,
        1
      ],
      "name": "GLTF_SceneRootNode"
    },
    {
      "children": [
        5,
        7,
        9,
        11,
        13
      ],
      "name": "root_5"
    },
    {
      "children": [
        6
      ],
      "matrix": [
        0.00088412541663274169,
        0,
        0,
        0,
        0,
        0.00088412541663274169,
        0,
        0,
        0,
        0,
        0.00088412541663274169,
        0,
        -0.039343353360891342,
        0.015900742262601852,
        0.2030426412820816,
        1
      ],
      "name": "_0"
    },
    {
      "mesh": 0,
      "name": ""
    },
    {
      "children": [
        8
      ],
      "matrix": [
        0.0010000000474974513,
        0,
        0,
        0,
        0,
        0.0010000000474974513,
        0,
        0,
        0,
        0,
        0.0010000000474974513,
        0,
        -0.039130188524723053,
        0.098567493259906769,
        0.19995646178722382,
        1
      ],
      "name": "_1"
    },
    {
      "mesh": 1,
      "name": ""
    },
    {
      "children": [
        10
      ],
      "matrix": [
        0.0010000000474974513,
        -4.104556904301289e-18,
        -1.0536711736391549e-11,
        0,
        1.0536708056488454e-11,
        4.2146834727663712e-10,
        0.00099999969825139714,
        0,
        3.3633480128456223e-19,
        -0.00099999969825139714,
        4.2146834727663712e-10,
        0,
        -0.032792694866657257,
        0.011607437394559383,
        0.29596009850502014,
        1
      ],
      "name": "_2"
    },
    {
      "mesh": 2,
      "name": ""
    },
    {
      "children": [
        12
      ],
      "matrix": [
        0.00071055040461942543,
        -2.9164953704265623e-18,
        -7.4868688945635026e-12,
        0,
        7.4868682812463855e-12,
        2.9947457052501509e-10,
        0.00071055034641170163,
        0,
        2.3898376393707874e-19,
        -0.00071055017178871889,
        2.9947449692693297e-10,
        0,
        -0.032654054462909698,
        0.01047918014228344,
        0.33392810821533203,
        1
      ],
      "name": "_3"
    },
    {
      "mesh": 3,
      "name": ""
    },
    {
      "children": [
        14
      ],
      "matrix": [
        -0.0010000005131587386,
        -1.8626455499517951e-12,
        0,
        0,
        1.8626455499517951e-12,
        -0.0010000005131587386,
        0,
        0,
        0,
        0,
        0.0010000000474974513,
        0,
        -0.036223482340574265,
        -0.066308416426181793,
        0.19995646178722382,
        1
      ],
      "name": "_4"
    },
    {
      "mesh": 4,
      "name": ""
    }
  ],
  "samplers": [
    {
      "magFilter": 9729,
      "minFilter": 9987,
      "wrapS": 10497,
      "wrapT": 10497
    }
  ],
  "scene": 0,
  "scenes": [
    {
      "name": "OSG_Scene",
      "nodes": [
        0
      ]
    }
  ],
  "textures": [
    {
      "sampler": 0,
      "source": 0
    },
    {
      "sampler": 0,
      "source": 1
    },
    {
      "sampler": 0,
      "source": 2
    },
    {
      "sampler": 0,
      "source": 3
    },
    {
      "sampler": 0,
      "source": 4
    },
    {
      "sampler": 0,
      "source": 5
    },
    {
      "sampler": 0,
      "source": 6
    },
    {
      "sampler": 0,
      "source": 7
    }
  ]
}

